<svg id="Layer_1" enable-background="new 0 0 512.002 512.002" height="512" viewBox="0 0 512.002 512.002" width="512" xmlns="http://www.w3.org/2000/svg"><g><path d="m482.002 46.001h-452.002c-16.542 0-30 13.458-30 30v360.001c0 16.542 13.458 30 30 30h452.002c16.542 0 30-13.458 30-30v-360.002c0-16.542-13.458-29.999-30-29.999zm-452.002 20h452.002c5.514 0 10 4.486 10 10v40.003h-472.002v-40.004c0-5.513 4.486-9.999 10-9.999zm452.002 380h-452.002c-5.514 0-10-4.486-10-10v-299.998h472.001v299.998c.001 5.514-4.485 10-9.999 10z"/><path d="m467.005 101.002c5.523 0 10-4.477 10-10s-4.477-10-10-10h-.007c-5.523 0-9.997 4.477-9.997 10s4.481 10 10.004 10z"/><path d="m432.009 101.002c5.523 0 10-4.477 10-10s-4.477-10-10-10h-.007c-5.523 0-9.997 4.477-9.997 10s4.481 10 10.004 10z"/><path d="m397.013 101.002c5.523 0 10-4.477 10-10s-4.477-10-10-10h-.007c-5.523 0-9.997 4.477-9.997 10s4.481 10 10.004 10z"/><path d="m416.813 190.448-146.084 146.084c-1.098 1.098-1.925 2.436-2.416 3.909l-15.8 47.399c-2.554 7.661 4.978 15.205 12.649 12.649l47.399-15.801c1.473-.491 2.811-1.318 3.909-2.416l146.084-146.083c12.611-12.611 12.611-33.13 0-45.741-12.611-12.61-33.129-12.609-45.741 0zm-94.774 157.971-17.457-17.456 94.022-94.021 17.456 17.456zm-44.227 26.771 8.729-26.186 3.899-3.899 17.457 17.456-3.899 3.899zm170.6-153.143-18.209 18.209-17.456-17.456 18.209-18.208c4.813-4.812 12.645-4.812 17.457 0 2.314 2.313 3.588 5.413 3.588 8.728s-1.275 6.413-3.589 8.727z"/><path d="m50.001 201.003h284.003c5.523 0 10-4.477 10-10s-4.477-10-10-10h-284.003c-5.523 0-10 4.477-10 10s4.478 10 10 10z"/><path d="m314.003 231.003c0-5.523-4.477-10-10-10h-104.995c-5.523 0-10 4.477-10 10s4.477 10 10 10h104.996c5.522 0 9.999-4.477 9.999-10z"/><path d="m284.002 271.003c0-5.523-4.477-10-10-10h-179.004c-5.523 0-10 4.477-10 10s4.477 10 10 10h179.004c5.523 0 10-4.477 10-10z"/><path d="m50.001 301.003c-5.523 0-10 4.477-10 10s4.477 10 10 10h89.005c5.523 0 10-4.477 10-10s-4.477-10-10-10z"/><path d="m212.003 341.003h-162.002c-5.523 0-10 4.477-10 10s4.477 10 10 10h162.002c5.523 0 10-4.477 10-10s-4.477-10-10-10z"/><path d="m182.002 381.003h-132.001c-5.523 0-10 4.477-10 10s4.477 10 10 10h132.001c5.523 0 10-4.477 10-10s-4.477-10-10-10z"/><path d="m50.001 241.003h89.005c5.523 0 10-4.477 10-10s-4.477-10-10-10h-89.005c-5.523 0-10 4.477-10 10s4.478 10 10 10z"/><path d="m50.001 281.003c5.523 0 10-4.477 10-10s-4.477-10-10-10h-.007c-5.523 0-9.996 4.477-9.996 10s4.481 10 10.003 10z"/></g></svg>